HIERARCHY
ROOT ui
{
	 OFFSET 0 0 0
	 CHANNELS 3 XPosition YPosition Z Position
	 EndSite
	 {
	 OFFSET 0 -1 0
	 }
}
ROOT li
{
	 OFFSET 0 0 0
	 CHANNELS 3 XPosition YPosition Z Position
	 EndSite
	 {
	 OFFSET 0 -1 0
	 }
}
ROOT ul
{
	 OFFSET 0 0 0
	 CHANNELS 3 XPosition YPosition Z Position
	 EndSite
	 {
	 OFFSET 0 -1 0
	 }
}
ROOT ll
{
	 OFFSET 0 0 0
	 CHANNELS 3 XPosition YPosition Z Position
	 EndSite
	 {
	 OFFSET 0 -1 0
	 }
}
ROOT tt
{
	 OFFSET 0 0 0
	 CHANNELS 3 XPosition YPosition Z Position
	 EndSite
	 {
	 OFFSET 0 -1 0
	 }
}
ROOT tb
{
	 OFFSET 0 0 0
	 CHANNELS 3 XPosition YPosition Z Position
	 EndSite
	 {
	 OFFSET 0 -1 0
	 }
}
ROOT td
{
	 OFFSET 0 0 0
	 CHANNELS 3 XPosition YPosition Z Position
	 EndSite
	 {
	 OFFSET 0 -1 0
	 }
}
ROOT v
{
	 OFFSET 0 0 0
	 CHANNELS 3 XPosition YPosition Z Position
	 EndSite
	 {
	 OFFSET 0 -1 0
	 }
}
ROOT bn
{
	 OFFSET 0 0 0
	 CHANNELS 3 XPosition YPosition Z Position
	 EndSite
	 {
	 OFFSET 0 -1 0
	 }
}
MOTION
Frames: 13
Frame Time: 0.002
-0.0015559680461883546	-0.002324162006378174	0		0.6092921142578125	-2.775944580078125	0		-0.8626444091796875	0.12979945373535157	0		-0.09320282745361329	-3.394322021484375	0		1.5155120849609376	-1.454586669921875	0		2.74497412109375	-0.2511632995605469	0		4.2794423828125	0.6875863037109375	0		5.9389208984375	0.5093034973144531	0		-0.19251007080078125	5.9142685546875	0		
0.0059763331413269045	0.003288254976272583	0		0.5677989501953125	-2.776570068359375	0		-0.858145751953125	0.13343434143066407	0		-0.09369915771484374	-3.396589599609375	0		1.5198409423828125	-1.4648857421875	0		2.72353173828125	-0.24403582763671874	0		4.28377392578125	0.68136181640625	0		5.95245361328125	0.5159857788085938	0		-0.143975830078125	5.93025146484375	0		
0.006375768184661865	0.003040853977203369	0		0.6181250610351563	-2.7875576171875	0		-0.857750244140625	0.1331607971191406	0		-0.08745536804199219	-3.41392919921875	0		1.5182396240234375	-1.468056640625	0		2.741451416015625	-0.2764703063964844	0		4.28804638671875	0.6741840209960938	0		5.9499443359375	0.5229629516601563	0		-0.14375572204589843	5.92999951171875	0		
0.00673392391204834	0.002826282024383545	0		0.5885648193359375	-2.788297607421875	0		-0.857396484375	0.1329173278808594	0		-0.06521247863769532	-3.42947802734375	0		1.51840478515625	-1.4842188720703124	0		2.74181884765625	-0.27659344482421877	0		4.250083984375	0.6546898803710938	0		5.95440576171875	0.5308856201171875	0		-0.025427621841430666	5.93999267578125	0		
-0.009902128219604492	0.005900002002716064	0		0.5838778686523437	-2.7953828125	0		-0.85708447265625	0.132703369140625	0		-0.11570485687255859	-3.424893798828125	0		1.5185340576171875	-1.5003446044921875	0		2.731935546875	-0.2905240783691406	0		4.23818212890625	0.6418441162109375	0		5.95956689453125	0.5218447265625	0		-0.15864356994628906	5.9198193359375	0		
2.3572200536727905E-4	-0.0034024200439453124	0		0.5910636596679687	-2.80861669921875	0		-0.8568148193359375	0.13251788330078124	0		-0.06678567504882812	-3.457784912109375	0		1.5158216552734376	-1.5033931884765626	0		2.720132568359375	-0.29639004516601564	0		4.22322314453125	0.6280822143554687	0		5.96492626953125	0.5288455810546875	0		-0.17753434753417968	5.9239462890625	0		
4.68205988407135E-4	-0.0035267341136932372	0		0.5914075317382812	-2.808717529296875	0		-0.9255198974609375	0.1373953094482422	0		-0.10139704895019531	-3.45638623046875	0		1.5209630126953124	-1.51353125	0		2.753057373046875	-0.31789956665039065	0		4.2043271484375	0.6214117431640624	0		5.97825634765625	0.536761962890625	0		-0.1604040069580078	5.93255859375	0		
0.010806987762451172	0.006224095821380615	0		0.59373974609375	-2.806822265625	0		-0.84323974609375	0.14303099060058594	0		-0.04024018096923828	-3.468401123046875	0		1.516124267578125	-1.5194930419921875	0		2.726472900390625	-0.30348471069335936	0		4.20040283203125	0.61554248046875	0		5.9784248046875	0.5369031982421875	0		-0.14349853515625	5.92919970703125	0		
8.055229783058167E-4	-0.0036992499828338624	0		0.5848348999023437	-2.8177373046875	0		-0.8562612915039063	0.13211868286132813	0		-0.11300712585449219	-3.471385986328125	0		1.5071534423828126	-1.531371337890625	0		2.696067626953125	-0.3409984436035156	0		4.2008232421875	0.5686251831054687	0		5.97443115234375	0.5291267700195312	0		-0.1587493896484375	5.9183447265625	0		
9.080780148506165E-4	-0.0037514979839324953	0		0.5819867553710938	-2.821721923828125	0		-0.8561639404296875	0.13203335571289063	0		-0.05500067138671875	-3.48730517578125	0		1.511927001953125	-1.5574371337890625	0		2.71807666015625	-0.348273681640625	0		4.19360693359375	0.548841552734375	0		5.96551416015625	0.5294391479492188	0		-0.15887538146972657	5.91828662109375	0		
9.634720087051392E-4	-0.0037834780216217043	0		0.5801165161132813	-2.82370263671875	0		-0.8561135864257813	0.13196978759765626	0		-0.12379439544677734	-3.485313720703125	0		1.5227857666015625	-1.574574951171875	0		2.757843017578125	-0.36879779052734374	0		4.18634521484375	0.5290703125	0		5.97141552734375	0.5205388793945313	0		-0.17796185302734374	5.9235302734375	0		
9.687979817390442E-4	-0.003796133995056152	0		0.5989207153320313	-2.843974853515625	0		-0.8520689086914063	0.1348678436279297	0		-0.039137683868408206	-3.517587646484375	0		1.5228453369140624	-1.5745350341796875	0		2.748906494140625	-0.36558200073242186	0		4.194138671875	0.516085205078125	0		5.97552099609375	0.5286724853515625	0		-0.1781614990234375	5.92351171875	0		
0.00800881290435791	0.0021062169075012206	0		0.56214501953125	-2.83140283203125	0		-0.84300390625	0.142713134765625	0		-0.11582827758789062	-3.50044482421875	0		1.5366241455078125	-1.589685302734375	0		2.750396240234375	-0.39751373291015624	0		4.1916748046875	0.48925827026367186	0		5.971337890625	0.520929931640625	0		-0.14431376647949218	5.9290087890625	0		
